<svg width="386" height="281" viewBox="0 0 386 281" fill="none" xmlns="http://www.w3.org/2000/svg">
<path d="M49 1L33 10.25V1" stroke="black" stroke-opacity="0.04"/>
<path d="M81 1L65 10.25V1" stroke="black" stroke-opacity="0.04"/>
<path d="M113 1L97 10.25V1" stroke="black" stroke-opacity="0.04"/>
<path d="M145 1L129 10.25V1" stroke="black" stroke-opacity="0.04"/>
<path d="M177 1L161 10.25V1" stroke="black" stroke-opacity="0.04"/>
<path d="M209 1L193 10.25V1" stroke="black" stroke-opacity="0.04"/>
<path d="M241 1L225 10.25V1" stroke="black" stroke-opacity="0.04"/>
<path d="M273 1L257 10.25V1" stroke="black" stroke-opacity="0.04"/>
<path d="M305 1L289 10.25V1" stroke="black" stroke-opacity="0.04"/>
<path d="M337 1L321 10.25V1" stroke="black" stroke-opacity="0.04"/>
<path d="M369 1L353 10.25V1" stroke="black" stroke-opacity="0.04"/>
<path d="M385 10.25V1" stroke="black" stroke-opacity="0.04"/>
<path d="M33 10.25L17 1L1 10.25M33 10.25V28.75L17 38M33 10.25L17 19.5M17 38L1 28.75V10.25M17 38L17 19.5M1 10.25L17 19.5" stroke="black" stroke-opacity="0.04"/>
<path d="M65 10.25L49 1L33 10.25M65 10.25V28.75L49 38M65 10.25L49 19.5M49 38L33 28.75V10.25M49 38L49 19.5M33 10.25L49 19.5" stroke="black" stroke-opacity="0.04"/>
<path d="M97 10.25L81 1L65 10.25M97 10.25V28.75L81 38M97 10.25L81 19.5M81 38L65 28.75V10.25M81 38L81 19.5M65 10.25L81 19.5" stroke="black" stroke-opacity="0.04"/>
<path d="M129 10.25L113 1L97 10.25M129 10.25V28.75L113 38M129 10.25L113 19.5M113 38L97 28.75V10.25M113 38L113 19.5M97 10.25L113 19.5" stroke="black" stroke-opacity="0.04"/>
<path d="M161 10.25L145 1L129 10.25M161 10.25V28.75L145 38M161 10.25L145 19.5M145 38L129 28.75V10.25M145 38L145 19.5M129 10.25L145 19.5" stroke="black" stroke-opacity="0.04"/>
<path d="M193 10.25L177 1L161 10.25M193 10.25V28.75L177 38M193 10.25L177 19.5M177 38L161 28.75V10.25M177 38L177 19.5M161 10.25L177 19.5" stroke="black" stroke-opacity="0.04"/>
<path d="M225 10.25L209 1L193 10.25M225 10.25V28.75L209 38M225 10.25L209 19.5M209 38L193 28.75V10.25M209 38L209 19.5M193 10.25L209 19.5" stroke="black" stroke-opacity="0.04"/>
<path d="M257 10.25L241 1L225 10.25M257 10.25V28.75L241 38M257 10.25L241 19.5M241 38L225 28.75V10.25M241 38L241 19.5M225 10.25L241 19.5" stroke="black" stroke-opacity="0.04"/>
<path d="M289 10.25L273 1L257 10.25M289 10.25V28.75L273 38M289 10.25L273 19.5M273 38L257 28.75V10.25M273 38L273 19.5M257 10.25L273 19.5" stroke="black" stroke-opacity="0.04"/>
<path d="M321 10.25L305 1L289 10.25M321 10.25V28.75L305 38M321 10.25L305 19.5M305 38L289 28.75V10.25M305 38L305 19.5M289 10.25L305 19.5" stroke="black" stroke-opacity="0.04"/>
<path d="M353 10.25L337 1L321 10.25M353 10.25V28.75L337 38M353 10.25L337 19.5M337 38L321 28.75V10.25M337 38L337 19.5M321 10.25L337 19.5" stroke="black" stroke-opacity="0.04"/>
<path d="M385 10.25L369 1L353 10.25M385 10.25V28.75L369 38M385 10.25L369 19.5M369 38L353 28.75V10.25M369 38L369 19.5M353 10.25L369 19.5" stroke="black" stroke-opacity="0.04"/>
<path d="M1 29L17 38.25M17 38.25V56.75L1 66L1 47.5L17 38.25Z" stroke="black" stroke-opacity="0.04"/>
<path d="M49 38.25L33 29L17 38.25M49 38.25V56.75L33 66M49 38.25L33 47.5M33 66L17 56.75V38.25M33 66L33 47.5M17 38.25L33 47.5" stroke="black" stroke-opacity="0.04"/>
<path d="M81 38.25L65 29L49 38.25M81 38.25V56.75L65 66M81 38.25L65 47.5M65 66L49 56.75V38.25M65 66L65 47.5M49 38.25L65 47.5" stroke="black" stroke-opacity="0.04"/>
<path d="M113 38.25L97 29L81 38.25M113 38.25V56.75L97 66M113 38.25L97 47.5M97 66L81 56.75V38.25M97 66L97 47.5M81 38.25L97 47.5" stroke="black" stroke-opacity="0.04"/>
<path d="M145 38.25L129 29L113 38.25M145 38.25V56.75L129 66M145 38.25L129 47.5M129 66L113 56.75V38.25M129 66L129 47.5M113 38.25L129 47.5" stroke="black" stroke-opacity="0.04"/>
<path d="M177 38.25L161 29L145 38.25M177 38.25V56.75L161 66M177 38.25L161 47.5M161 66L145 56.75V38.25M161 66L161 47.5M145 38.25L161 47.5" stroke="black" stroke-opacity="0.04"/>
<path d="M209 38.25L193 29L177 38.25M209 38.25V56.75L193 66M209 38.25L193 47.5M193 66L177 56.75V38.25M193 66L193 47.5M177 38.25L193 47.5" stroke="black" stroke-opacity="0.04"/>
<path d="M241 38.25L225 29L209 38.25M241 38.25V56.75L225 66M241 38.25L225 47.5M225 66L209 56.75V38.25M225 66L225 47.5M209 38.25L225 47.5" stroke="black" stroke-opacity="0.04"/>
<path d="M273 38.25L257 29L241 38.25M273 38.25V56.75L257 66M273 38.25L257 47.5M257 66L241 56.75V38.25M257 66L257 47.5M241 38.25L257 47.5" stroke="black" stroke-opacity="0.04"/>
<path d="M305 38.25L289 29L273 38.25M305 38.25V56.75L289 66M305 38.25L289 47.5M289 66L273 56.75V38.25M289 66L289 47.5M273 38.25L289 47.5" stroke="black" stroke-opacity="0.04"/>
<path d="M337 38.25L321 29L305 38.25M337 38.25V56.75L321 66M337 38.25L321 47.5M321 66L305 56.75V38.25M321 66L321 47.5M305 38.25L321 47.5" stroke="black" stroke-opacity="0.04"/>
<path d="M369 38.25L353 29L337 38.25M369 38.25V56.75L353 66M369 38.25L353 47.5M353 66L337 56.75V38.25M353 66L353 47.5M337 38.25L353 47.5" stroke="black" stroke-opacity="0.04"/>
<path d="M385 29L369 38.25M369 38.25V56.75L385 66L385 47.5L369 38.25Z" stroke="black" stroke-opacity="0.04"/>
<path d="M385 85L369 94.25M369 94.25V112.75L385 122L385 103.5L369 94.25Z" stroke="black" stroke-opacity="0.04"/>
<path d="M385 141L369 150.25M369 150.25V168.75L385 178L385 159.5L369 150.25Z" stroke="black" stroke-opacity="0.04"/>
<path d="M385 197L369 206.25M369 206.25V224.75L385 234L385 215.5L369 206.25Z" stroke="black" stroke-opacity="0.04"/>
<path d="M33 66.25L17 57L1 66.25M33 66.25V84.75L17 94M33 66.25L17 75.5M17 94L1 84.75V66.25M17 94L17 75.5M1 66.25L17 75.5" stroke="black" stroke-opacity="0.04"/>
<path d="M65 66.25L49 57L33 66.25M65 66.25V84.75L49 94M65 66.25L49 75.5M49 94L33 84.75V66.25M49 94L49 75.5M33 66.25L49 75.5" stroke="black" stroke-opacity="0.04"/>
<path d="M97 66.25L81 57L65 66.25M97 66.25V84.75L81 94M97 66.25L81 75.5M81 94L65 84.75V66.25M81 94L81 75.5M65 66.25L81 75.5" stroke="black" stroke-opacity="0.04"/>
<path d="M129 66.25L113 57L97 66.25M129 66.25V84.75L113 94M129 66.25L113 75.5M113 94L97 84.75V66.25M113 94L113 75.5M97 66.25L113 75.5" stroke="black" stroke-opacity="0.04"/>
<path d="M161 66.25L145 57L129 66.25M161 66.25V84.75L145 94M161 66.25L145 75.5M145 94L129 84.75V66.25M145 94L145 75.5M129 66.25L145 75.5" stroke="black" stroke-opacity="0.04"/>
<path d="M193 66.25L177 57L161 66.25M193 66.25V84.75L177 94M193 66.25L177 75.5M177 94L161 84.75V66.25M177 94L177 75.5M161 66.25L177 75.5" stroke="black" stroke-opacity="0.04"/>
<path d="M225 66.25L209 57L193 66.25M225 66.25V84.75L209 94M225 66.25L209 75.5M209 94L193 84.75V66.25M209 94L209 75.5M193 66.25L209 75.5" stroke="black" stroke-opacity="0.04"/>
<path d="M257 66.25L241 57L225 66.25M257 66.25V84.75L241 94M257 66.25L241 75.5M241 94L225 84.75V66.25M241 94L241 75.5M225 66.25L241 75.5" stroke="black" stroke-opacity="0.04"/>
<path d="M289 66.25L273 57L257 66.25M289 66.25V84.75L273 94M289 66.25L273 75.5M273 94L257 84.75V66.25M273 94L273 75.5M257 66.25L273 75.5" stroke="black" stroke-opacity="0.04"/>
<path d="M321 66.25L305 57L289 66.25M321 66.25V84.75L305 94M321 66.25L305 75.5M305 94L289 84.75V66.25M305 94L305 75.5M289 66.25L305 75.5" stroke="black" stroke-opacity="0.04"/>
<path d="M353 66.25L337 57L321 66.25M353 66.25V84.75L337 94M353 66.25L337 75.5M337 94L321 84.75V66.25M337 94L337 75.5M321 66.25L337 75.5" stroke="black" stroke-opacity="0.04"/>
<path d="M385 66.25L369 57L353 66.25M385 66.25V84.75L369 94M385 66.25L369 75.5M369 94L353 84.75V66.25M369 94L369 75.5M353 66.25L369 75.5" stroke="black" stroke-opacity="0.04"/>
<path d="M1 85L17 94.25M17 94.25V112.75L1 122L1 103.5L17 94.25Z" stroke="black" stroke-opacity="0.04"/>
<path d="M49 94.25L33 85L17 94.25M49 94.25V112.75L33 122M49 94.25L33 103.5M33 122L17 112.75V94.25M33 122L33 103.5M17 94.25L33 103.5" stroke="black" stroke-opacity="0.04"/>
<path d="M81 94.25L65 85L49 94.25M81 94.25V112.75L65 122M81 94.25L65 103.5M65 122L49 112.75V94.25M65 122L65 103.5M49 94.25L65 103.5" stroke="black" stroke-opacity="0.04"/>
<path d="M113 94.25L97 85L81 94.25M113 94.25V112.75L97 122M113 94.25L97 103.5M97 122L81 112.75V94.25M97 122L97 103.5M81 94.25L97 103.5" stroke="black" stroke-opacity="0.04"/>
<path d="M145 94.25L129 85L113 94.25M145 94.25V112.75L129 122M145 94.25L129 103.5M129 122L113 112.75V94.25M129 122L129 103.5M113 94.25L129 103.5" stroke="black" stroke-opacity="0.04"/>
<path d="M177 94.25L161 85L145 94.25M177 94.25V112.75L161 122M177 94.25L161 103.5M161 122L145 112.75V94.25M161 122L161 103.5M145 94.25L161 103.5" stroke="black" stroke-opacity="0.04"/>
<path d="M209 94.25L193 85L177 94.25M209 94.25V112.75L193 122M209 94.25L193 103.5M193 122L177 112.75V94.25M193 122L193 103.5M177 94.25L193 103.5" stroke="black" stroke-opacity="0.04"/>
<path d="M241 94.25L225 85L209 94.25M241 94.25V112.75L225 122M241 94.25L225 103.5M225 122L209 112.75V94.25M225 122L225 103.5M209 94.25L225 103.5" stroke="black" stroke-opacity="0.04"/>
<path d="M273 94.25L257 85L241 94.25M273 94.25V112.75L257 122M273 94.25L257 103.5M257 122L241 112.75V94.25M257 122L257 103.5M241 94.25L257 103.5" stroke="black" stroke-opacity="0.04"/>
<path d="M305 94.25L289 85L273 94.25M305 94.25V112.75L289 122M305 94.25L289 103.5M289 122L273 112.75V94.25M289 122L289 103.5M273 94.25L289 103.5" stroke="black" stroke-opacity="0.04"/>
<path d="M337 94.25L321 85L305 94.25M337 94.25V112.75L321 122M337 94.25L321 103.5M321 122L305 112.75V94.25M321 122L321 103.5M305 94.25L321 103.5" stroke="black" stroke-opacity="0.04"/>
<path d="M369 94.25L353 85L337 94.25M369 94.25V112.75L353 122M369 94.25L353 103.5M353 122L337 112.75V94.25M353 122L353 103.5M337 94.25L353 103.5" stroke="black" stroke-opacity="0.04"/>
<path d="M33 122.25L17 113L1 122.25M33 122.25V140.75L17 150M33 122.25L17 131.5M17 150L1 140.75V122.25M17 150L17 131.5M1 122.25L17 131.5" stroke="black" stroke-opacity="0.04"/>
<path d="M65 122.25L49 113L33 122.25M65 122.25V140.75L49 150M65 122.25L49 131.5M49 150L33 140.75V122.25M49 150L49 131.5M33 122.25L49 131.5" stroke="black" stroke-opacity="0.04"/>
<path d="M97 122.25L81 113L65 122.25M97 122.25V140.75L81 150M97 122.25L81 131.5M81 150L65 140.75V122.25M81 150L81 131.5M65 122.25L81 131.5" stroke="black" stroke-opacity="0.04"/>
<path d="M129 122.25L113 113L97 122.25M129 122.25V140.75L113 150M129 122.25L113 131.5M113 150L97 140.75V122.25M113 150L113 131.5M97 122.25L113 131.5" stroke="black" stroke-opacity="0.04"/>
<path d="M161 122.25L145 113L129 122.25M161 122.25V140.75L145 150M161 122.25L145 131.5M145 150L129 140.75V122.25M145 150L145 131.5M129 122.25L145 131.5" stroke="black" stroke-opacity="0.04"/>
<path d="M193 122.25L177 113L161 122.25M193 122.25V140.75L177 150M193 122.25L177 131.5M177 150L161 140.75V122.25M177 150L177 131.5M161 122.25L177 131.5" stroke="black" stroke-opacity="0.04"/>
<path d="M225 122.25L209 113L193 122.25M225 122.25V140.75L209 150M225 122.25L209 131.5M209 150L193 140.75V122.25M209 150L209 131.5M193 122.25L209 131.5" stroke="black" stroke-opacity="0.04"/>
<path d="M257 122.25L241 113L225 122.25M257 122.25V140.75L241 150M257 122.25L241 131.5M241 150L225 140.75V122.25M241 150L241 131.5M225 122.25L241 131.5" stroke="black" stroke-opacity="0.04"/>
<path d="M289 122.25L273 113L257 122.25M289 122.25V140.75L273 150M289 122.25L273 131.5M273 150L257 140.75V122.25M273 150L273 131.5M257 122.25L273 131.5" stroke="black" stroke-opacity="0.04"/>
<path d="M321 122.25L305 113L289 122.25M321 122.25V140.75L305 150M321 122.25L305 131.5M305 150L289 140.75V122.25M305 150L305 131.5M289 122.25L305 131.5" stroke="black" stroke-opacity="0.04"/>
<path d="M353 122.25L337 113L321 122.25M353 122.25V140.75L337 150M353 122.25L337 131.5M337 150L321 140.75V122.25M337 150L337 131.5M321 122.25L337 131.5" stroke="black" stroke-opacity="0.04"/>
<path d="M385 122.25L369 113L353 122.25M385 122.25V140.75L369 150M385 122.25L369 131.5M369 150L353 140.75V122.25M369 150L369 131.5M353 122.25L369 131.5" stroke="black" stroke-opacity="0.04"/>
<path d="M1 141L17 150.25M17 150.25V168.75L1 178L1 159.5L17 150.25Z" stroke="black" stroke-opacity="0.04"/>
<path d="M49 150.25L33 141L17 150.25M49 150.25V168.75L33 178M49 150.25L33 159.5M33 178L17 168.75V150.25M33 178L33 159.5M17 150.25L33 159.5" stroke="black" stroke-opacity="0.04"/>
<path d="M81 150.25L65 141L49 150.25M81 150.25V168.75L65 178M81 150.25L65 159.5M65 178L49 168.75V150.25M65 178L65 159.5M49 150.25L65 159.5" stroke="black" stroke-opacity="0.04"/>
<path d="M113 150.25L97 141L81 150.25M113 150.25V168.75L97 178M113 150.25L97 159.5M97 178L81 168.75V150.25M97 178L97 159.5M81 150.25L97 159.5" stroke="black" stroke-opacity="0.04"/>
<path d="M145 150.25L129 141L113 150.25M145 150.25V168.75L129 178M145 150.25L129 159.5M129 178L113 168.75V150.25M129 178L129 159.5M113 150.25L129 159.5" stroke="black" stroke-opacity="0.04"/>
<path d="M177 150.25L161 141L145 150.25M177 150.25V168.75L161 178M177 150.25L161 159.5M161 178L145 168.75V150.25M161 178L161 159.5M145 150.25L161 159.5" stroke="black" stroke-opacity="0.04"/>
<path d="M209 150.25L193 141L177 150.25M209 150.25V168.75L193 178M209 150.25L193 159.5M193 178L177 168.75V150.25M193 178L193 159.5M177 150.25L193 159.5" stroke="black" stroke-opacity="0.04"/>
<path d="M241 150.25L225 141L209 150.25M241 150.25V168.75L225 178M241 150.25L225 159.5M225 178L209 168.75V150.25M225 178L225 159.5M209 150.25L225 159.5" stroke="black" stroke-opacity="0.04"/>
<path d="M273 150.25L257 141L241 150.25M273 150.25V168.75L257 178M273 150.25L257 159.5M257 178L241 168.75V150.25M257 178L257 159.5M241 150.25L257 159.5" stroke="black" stroke-opacity="0.04"/>
<path d="M305 150.25L289 141L273 150.25M305 150.25V168.75L289 178M305 150.25L289 159.5M289 178L273 168.75V150.25M289 178L289 159.5M273 150.25L289 159.5" stroke="black" stroke-opacity="0.04"/>
<path d="M337 150.25L321 141L305 150.25M337 150.25V168.75L321 178M337 150.25L321 159.5M321 178L305 168.75V150.25M321 178L321 159.5M305 150.25L321 159.5" stroke="black" stroke-opacity="0.04"/>
<path d="M369 150.25L353 141L337 150.25M369 150.25V168.75L353 178M369 150.25L353 159.5M353 178L337 168.75V150.25M353 178L353 159.5M337 150.25L353 159.5" stroke="black" stroke-opacity="0.04"/>
<path d="M33 178.25L17 169L1 178.25M33 178.25V196.75L17 206M33 178.25L17 187.5M17 206L1 196.75V178.25M17 206L17 187.5M1 178.25L17 187.5" stroke="black" stroke-opacity="0.04"/>
<path d="M65 178.25L49 169L33 178.25M65 178.25V196.75L49 206M65 178.25L49 187.5M49 206L33 196.75V178.25M49 206L49 187.5M33 178.25L49 187.5" stroke="black" stroke-opacity="0.04"/>
<path d="M97 178.25L81 169L65 178.25M97 178.25V196.75L81 206M97 178.25L81 187.5M81 206L65 196.75V178.25M81 206L81 187.5M65 178.25L81 187.5" stroke="black" stroke-opacity="0.04"/>
<path d="M129 178.25L113 169L97 178.25M129 178.25V196.75L113 206M129 178.25L113 187.5M113 206L97 196.75V178.25M113 206L113 187.5M97 178.25L113 187.5" stroke="black" stroke-opacity="0.04"/>
<path d="M161 178.25L145 169L129 178.25M161 178.25V196.75L145 206M161 178.25L145 187.5M145 206L129 196.75V178.25M145 206L145 187.5M129 178.25L145 187.5" stroke="black" stroke-opacity="0.04"/>
<path d="M193 178.25L177 169L161 178.25M193 178.25V196.75L177 206M193 178.25L177 187.5M177 206L161 196.75V178.25M177 206L177 187.5M161 178.25L177 187.5" stroke="black" stroke-opacity="0.04"/>
<path d="M225 178.25L209 169L193 178.25M225 178.25V196.75L209 206M225 178.25L209 187.5M209 206L193 196.75V178.25M209 206L209 187.5M193 178.25L209 187.5" stroke="black" stroke-opacity="0.04"/>
<path d="M257 178.25L241 169L225 178.25M257 178.25V196.75L241 206M257 178.25L241 187.5M241 206L225 196.75V178.25M241 206L241 187.5M225 178.25L241 187.5" stroke="black" stroke-opacity="0.04"/>
<path d="M289 178.25L273 169L257 178.25M289 178.25V196.75L273 206M289 178.25L273 187.5M273 206L257 196.75V178.25M273 206L273 187.5M257 178.25L273 187.5" stroke="black" stroke-opacity="0.04"/>
<path d="M321 178.25L305 169L289 178.25M321 178.25V196.75L305 206M321 178.25L305 187.5M305 206L289 196.75V178.25M305 206L305 187.5M289 178.25L305 187.5" stroke="black" stroke-opacity="0.04"/>
<path d="M353 178.25L337 169L321 178.25M353 178.25V196.75L337 206M353 178.25L337 187.5M337 206L321 196.75V178.25M337 206L337 187.5M321 178.25L337 187.5" stroke="black" stroke-opacity="0.04"/>
<path d="M385 178.25L369 169L353 178.25M385 178.25V196.75L369 206M385 178.25L369 187.5M369 206L353 196.75V178.25M369 206L369 187.5M353 178.25L369 187.5" stroke="black" stroke-opacity="0.04"/>
<path d="M1 197L17 206.25M17 206.25V224.75L1 234L1 215.5L17 206.25Z" stroke="black" stroke-opacity="0.04"/>
<path d="M49 206.25L33 197L17 206.25M49 206.25V224.75L33 234M49 206.25L33 215.5M33 234L17 224.75V206.25M33 234L33 215.5M17 206.25L33 215.5" stroke="black" stroke-opacity="0.04"/>
<path d="M81 206.25L65 197L49 206.25M81 206.25V224.75L65 234M81 206.25L65 215.5M65 234L49 224.75V206.25M65 234L65 215.5M49 206.25L65 215.5" stroke="black" stroke-opacity="0.04"/>
<path d="M113 206.25L97 197L81 206.25M113 206.25V224.75L97 234M113 206.25L97 215.5M97 234L81 224.75V206.25M97 234L97 215.5M81 206.25L97 215.5" stroke="black" stroke-opacity="0.04"/>
<path d="M145 206.25L129 197L113 206.25M145 206.25V224.75L129 234M145 206.25L129 215.5M129 234L113 224.75V206.25M129 234L129 215.5M113 206.25L129 215.5" stroke="black" stroke-opacity="0.04"/>
<path d="M177 206.25L161 197L145 206.25M177 206.25V224.75L161 234M177 206.25L161 215.5M161 234L145 224.75V206.25M161 234L161 215.5M145 206.25L161 215.5" stroke="black" stroke-opacity="0.04"/>
<path d="M209 206.25L193 197L177 206.25M209 206.25V224.75L193 234M209 206.25L193 215.5M193 234L177 224.75V206.25M193 234L193 215.5M177 206.25L193 215.5" stroke="black" stroke-opacity="0.04"/>
<path d="M241 206.25L225 197L209 206.25M241 206.25V224.75L225 234M241 206.25L225 215.5M225 234L209 224.75V206.25M225 234L225 215.5M209 206.25L225 215.5" stroke="black" stroke-opacity="0.04"/>
<path d="M273 206.25L257 197L241 206.25M273 206.25V224.75L257 234M273 206.25L257 215.5M257 234L241 224.75V206.25M257 234L257 215.5M241 206.25L257 215.5" stroke="black" stroke-opacity="0.04"/>
<path d="M305 206.25L289 197L273 206.25M305 206.25V224.75L289 234M305 206.25L289 215.5M289 234L273 224.75V206.25M289 234L289 215.5M273 206.25L289 215.5" stroke="black" stroke-opacity="0.04"/>
<path d="M337 206.25L321 197L305 206.25M337 206.25V224.75L321 234M337 206.25L321 215.5M321 234L305 224.75V206.25M321 234L321 215.5M305 206.25L321 215.5" stroke="black" stroke-opacity="0.04"/>
<path d="M369 206.25L353 197L337 206.25M369 206.25V224.75L353 234M369 206.25L353 215.5M353 234L337 224.75V206.25M353 234L353 215.5M337 206.25L353 215.5" stroke="black" stroke-opacity="0.04"/>
<path d="M33 234.25L17 225L1 234.25M33 234.25V252.75L17 262M33 234.25L17 243.5M17 262L1 252.75V234.25M17 262L17 243.5M1 234.25L17 243.5" stroke="black" stroke-opacity="0.04"/>
<path d="M65 234.25L49 225L33 234.25M65 234.25V252.75L49 262M65 234.25L49 243.5M49 262L33 252.75V234.25M49 262L49 243.5M33 234.25L49 243.5" stroke="black" stroke-opacity="0.04"/>
<path d="M97 234.25L81 225L65 234.25M97 234.25V252.75L81 262M97 234.25L81 243.5M81 262L65 252.75V234.25M81 262L81 243.5M65 234.25L81 243.5" stroke="black" stroke-opacity="0.04"/>
<path d="M129 234.25L113 225L97 234.25M129 234.25V252.75L113 262M129 234.25L113 243.5M113 262L97 252.75V234.25M113 262L113 243.5M97 234.25L113 243.5" stroke="black" stroke-opacity="0.04"/>
<path d="M161 234.25L145 225L129 234.25M161 234.25V252.75L145 262M161 234.25L145 243.5M145 262L129 252.75V234.25M145 262L145 243.5M129 234.25L145 243.5" stroke="black" stroke-opacity="0.04"/>
<path d="M193 234.25L177 225L161 234.25M193 234.25V252.75L177 262M193 234.25L177 243.5M177 262L161 252.75V234.25M177 262L177 243.5M161 234.25L177 243.5" stroke="black" stroke-opacity="0.04"/>
<path d="M225 234.25L209 225L193 234.25M225 234.25V252.75L209 262M225 234.25L209 243.5M209 262L193 252.75V234.25M209 262L209 243.5M193 234.25L209 243.5" stroke="black" stroke-opacity="0.04"/>
<path d="M257 234.25L241 225L225 234.25M257 234.25V252.75L241 262M257 234.25L241 243.5M241 262L225 252.75V234.25M241 262L241 243.5M225 234.25L241 243.5" stroke="black" stroke-opacity="0.04"/>
<path d="M289 234.25L273 225L257 234.25M289 234.25V252.75L273 262M289 234.25L273 243.5M273 262L257 252.75V234.25M273 262L273 243.5M257 234.25L273 243.5" stroke="black" stroke-opacity="0.04"/>
<path d="M321 234.25L305 225L289 234.25M321 234.25V252.75L305 262M321 234.25L305 243.5M305 262L289 252.75V234.25M305 262L305 243.5M289 234.25L305 243.5" stroke="black" stroke-opacity="0.04"/>
<path d="M353 234.25L337 225L321 234.25M353 234.25V252.75L337 262M353 234.25L337 243.5M337 262L321 252.75V234.25M337 262L337 243.5M321 234.25L337 243.5" stroke="black" stroke-opacity="0.04"/>
<path d="M385 234.25L369 225L353 234.25M385 234.25V252.75L369 262M385 234.25L369 243.5M369 262L353 252.75V234.25M369 262L369 243.5M353 234.25L369 243.5" stroke="black" stroke-opacity="0.04"/>
<path d="M385 253L369 262.25M385 280.75V271.5L369 262.25M369 280.75V262.25" stroke="black" stroke-opacity="0.04"/>
<path d="M1 253L17 262.25M17 262.25V280.75M17 262.25L1 271.5V280.75" stroke="black" stroke-opacity="0.04"/>
<path d="M49 262.25L33 253L17 262.25M49 262.25V280.75M49 262.25L33 271.5M33 280.75V271.5M17 280.75V262.25M17 262.25L33 271.5" stroke="black" stroke-opacity="0.04"/>
<path d="M81 262.25L65 253L49 262.25M81 262.25V280.75M81 262.25L65 271.5M65 280.75V271.5M49 280.75V262.25M49 262.25L65 271.5" stroke="black" stroke-opacity="0.04"/>
<path d="M113 262.25L97 253L81 262.25M113 262.25V280.75M113 262.25L97 271.5M97 280.75V271.5M81 280.75V262.25M81 262.25L97 271.5" stroke="black" stroke-opacity="0.04"/>
<path d="M145 262.25L129 253L113 262.25M145 262.25V280.75M145 262.25L129 271.5M129 280.75V271.5M113 280.75V262.25M113 262.25L129 271.5" stroke="black" stroke-opacity="0.04"/>
<path d="M177 262.25L161 253L145 262.25M177 262.25V280.75M177 262.25L161 271.5M161 280.75V271.5M145 280.75V262.25M145 262.25L161 271.5" stroke="black" stroke-opacity="0.04"/>
<path d="M209 262.25L193 253L177 262.25M209 262.25V280.75M209 262.25L193 271.5M193 280.75V271.5M177 280.75V262.25M177 262.25L193 271.5" stroke="black" stroke-opacity="0.04"/>
<path d="M241 262.25L225 253L209 262.25M241 262.25V280.75M241 262.25L225 271.5M225 280.75V271.5M209 280.75V262.25M209 262.25L225 271.5" stroke="black" stroke-opacity="0.04"/>
<path d="M273 262.25L257 253L241 262.25M273 262.25V280.75M273 262.25L257 271.5M257 280.75V271.5M241 280.75V262.25M241 262.25L257 271.5" stroke="black" stroke-opacity="0.04"/>
<path d="M305 262.25L289 253L273 262.25M305 262.25V280.75M305 262.25L289 271.5M289 280.75V271.5M273 280.75V262.25M273 262.25L289 271.5" stroke="black" stroke-opacity="0.04"/>
<path d="M337 262.25L321 253L305 262.25M337 262.25V280.75M337 262.25L321 271.5M321 280.75V271.5M305 280.75V262.25M305 262.25L321 271.5" stroke="black" stroke-opacity="0.04"/>
<path d="M369 262.25L353 253L337 262.25M369 262.25V280.75M369 262.25L353 271.5M353 280.75V271.5M337 280.75V262.25M337 262.25L353 271.5" stroke="black" stroke-opacity="0.04"/>
</svg>
